<?xml version="1.0" encoding="utf-8"?>
<!-- Generator: Adobe Illustrator 19.2.0, SVG Export Plug-In . SVG Version: 6.00 Build 0)  -->
<svg version="1.1" id="Layer_1" xmlns="http://www.w3.org/2000/svg" xmlns:xlink="http://www.w3.org/1999/xlink" x="0px" y="0px"
	 viewBox="0 0 32 32" style="enable-background:new 0 0 32 32;" xml:space="preserve">
<style type="text/css">
	.st0{fill:#FCFFF5;}
	.st1{fill:url(#SVGID_1_);}
</style>
<g>
	<path class="st0" d="M29.8,6.9c-0.3-0.3-0.8-0.9-0.9-1c-1.2-1.5-3.5-2.1-6.4-2.1H6.4C6,3.8,5.7,4,5.6,4.3L1,26.1
		c-0.1,0.2,0,0.4,0.1,0.5c0.1,0.2,0.8,0.9,0.9,1.2c0.2,0.1,0.4,0.4,0.6,0.4H10c0.3,0,0.7,0,0.7-0.3l1.4-6.4h8.6
		c7.5,0,9.4-5.9,10-8.2C31.3,10.7,31,8.3,29.8,6.9z M14.3,10.6h5.9c0.3,0,0.5,0.1,0.7,0.1c0,0.3-0.1,0.7-0.1,1
		C20.4,13.2,19.7,14,18,14h-4.4L14.3,10.6z"/>
	
		<linearGradient id="SVGID_1_" gradientUnits="userSpaceOnUse" x1="15.5102" y1="39.8895" x2="15.5102" y2="61.7048" gradientTransform="matrix(1 0 0 -1 0 66)">
		<stop  offset="0" style="stop-color:#91AA9D"/>
		<stop  offset="1" style="stop-color:#193441"/>
	</linearGradient>
	<path class="st1" d="M6.4,4.3h16.1c5.9,0,7.4,3.1,6.4,7.3c-0.7,3.6-3.4,7.3-9.2,7.3h-9.2L9,26.1H1.8L6.4,4.3z M11.5,14.3H18
		c2,0,3.1-0.8,3.5-2.8c0.4-1.9-0.3-2.8-2.3-2.8h-6.4L11.5,14.3z"/>
</g>
</svg>
