<?xml version="1.0" encoding="utf-8"?>
<!-- Generator: Adobe Illustrator 18.1.0, SVG Export Plug-In . SVG Version: 6.00 Build 0)  -->
<svg version="1.1" id="Layer_1" xmlns="http://www.w3.org/2000/svg" xmlns:xlink="http://www.w3.org/1999/xlink" x="0px" y="0px"
	 viewBox="0 0 160 160" enable-background="new 0 0 160 160" xml:space="preserve">
<rect width="160" height="160"/>
<g>
	<g>
		<g>
			<path fill="#FCFFF5" d="M48.9,68.7c0-2.1-1.1-3.1-3.4-3.1c-2.5,0-3.9,1.4-3.9,3.7V76H40v-7.7c0-1.4-1-2.7-3.3-2.7
				c-2.3,0-4,1.4-4,4V76h-1.6V64.6h1.6v2.1h0.1c0.7-1.2,1.9-2.4,4.5-2.4c2.6,0,3.7,1.4,4.1,2.5c0.5-1.1,2.2-2.5,4.4-2.5
				c3.2,0,4.7,1.6,4.7,4V76h-1.6L48.9,68.7L48.9,68.7z"/>
			<path fill="#FCFFF5" d="M54.1,61h1.6v3.6h3.2v1.2h-3.2v7.5c0,1,0.3,1.4,1.6,1.4c0.8,0,1.3-0.1,1.6-0.1V76
				c-0.6,0.1-1.2,0.1-1.8,0.1c-2.5,0-3.1-1-3.1-2.8v-7.5h-2.5v-1.2H54L54.1,61L54.1,61z"/>
			<path fill="#FCFFF5" d="M71.2,64.6h1.6v10.9c0,4.2-3.4,5.3-6.4,5.3c-5.2,0-5.7-2.5-5.8-3.7h1.5c0.2,1.2,0.6,2.5,4.4,2.5
				c3,0,4.7-1.4,4.7-4.2v-2h-0.1c-0.6,1.2-2.1,2.6-5,2.6c-2.9,0-6.1-1.5-6.1-5.9c0-3,1.9-5.8,6.2-5.8c2.2,0,4.1,0.8,4.9,2.6h0.1
				L71.2,64.6L71.2,64.6z M66.4,65.6c-2.8,0-4.7,1.7-4.7,4.4c0,3.3,2.1,4.6,4.8,4.6c2.7,0,4.7-1.7,4.7-4.6
				C71.2,67.7,69.6,65.6,66.4,65.6z"/>
		</g>
	</g>
	<path fill="#FFFFFF" d="M106.3,78.8h19.1l-0.9,4.1h-12.8l-0.7,3.4H123l-0.8,4h-11.9l-0.7,3.4h12.8l-0.9,4.1h-19.1L106.3,78.8z"/>
	
		<linearGradient id="SVGID_1_" gradientUnits="userSpaceOnUse" x1="22.5915" y1="828.5945" x2="22.5915" y2="832.4093" gradientTransform="matrix(5 0 0 -5 0 4240)">
		<stop  offset="0" style="stop-color:#91AA9D"/>
		<stop  offset="1" style="stop-color:#193441"/>
	</linearGradient>
	<path fill="url(#SVGID_1_)" d="M105.4,78h19.1l-0.9,4.1h-12.8l-0.7,3.4h11.9l-0.8,4h-11.9l-0.7,3.4h12.8l-0.9,4.1h-19.1L105.4,78z"
		/>
	<path fill="#FCFFF5" d="M35.2,80.2c-0.2-0.3-0.7-0.8-0.8-0.9c-1.1-1.3-3-1.8-5.6-1.8H14.7c-0.3,0-0.6,0.2-0.7,0.5l-4,19
		c-0.1,0.2,0,0.4,0.1,0.5c0.1,0.2,0.7,0.8,0.8,1c0.2,0.1,0.4,0.4,0.5,0.4h6.3c0.3,0,0.6,0,0.7-0.3l1.2-5.6h7.5
		c6.5,0,8.2-5.2,8.7-7.2C36.5,83.6,36.2,81.5,35.2,80.2z M21.6,83.4h5.2c0.2,0,0.5,0.1,0.7,0.1c0,0.2-0.1,0.7-0.1,0.9
		c-0.4,1.4-1,2-2.5,2H21L21.6,83.4z"/>
	<path fill="#FCFFF5" d="M60.5,80.1c-0.2-0.2-0.8-0.8-0.8-0.9c-0.9-1.2-2.8-1.7-5.3-1.7H39.1c-0.3,0-0.6,0.2-0.7,0.5l-4,19
		c-0.1,0.2,0,0.4,0.1,0.5c0.1,0.2,0.7,0.8,0.8,1c0.1,0.2,0.3,0.4,0.5,0.4h6.3c0.3,0,0.6,0,0.7-0.3l1.2-5.6h5.3
		c0.2,0,0.4-0.3,0.5-0.3c0.1,0.4,0,0.8-0.2,1.7c-0.2,1-0.4,2.2-0.2,3.1c0.1,0.3,1.2,1.4,1.5,1.4h7c0.2,0,0.5-0.2,0.5-0.5
		c0.1-0.2,0.1-0.5,0-0.7c-0.5-0.8-0.4-2,0.1-5.5c0.2-1.7-0.2-2.8-0.8-3.4c1.6-0.8,2.8-2.4,3.2-4.4C61.5,82.6,61.3,81.1,60.5,80.1z
		 M52,84.5c-0.3,1.3-1.3,1.9-2.2,1.9h-4.3l0.4-2.4h5.6c0.2,0,0.4,0.1,0.5,0.1C52,84.3,52,84.4,52,84.5z"/>
	<path fill="#FCFFF5" d="M70.7,83.8c-0.1-0.2-0.7-0.7-0.8-0.8c-0.1-0.2-0.3-0.2-0.5-0.2H63c-0.3,0-0.6,0.2-0.7,0.5L59.4,97
		c-0.1,0.2,0,0.4,0.1,0.5c0.1,0.2,0.7,0.8,0.8,1c0.1,0.2,0.3,0.4,0.5,0.4h6.3c0.3,0,0.6-0.4,0.7-0.7l2.9-13.8
		C70.9,84.2,70.8,84,70.7,83.8z"/>
	<path fill="#FCFFF5" d="M102.9,78.6c-0.1-0.2-0.7-0.7-0.8-0.8s-0.3-0.2-0.5-0.2h-9.3c-0.2,0-0.5,0.1-0.5,0.3l-5.5,9.8l-1.2-8.8
		c-0.1-0.3-1.2-1.4-1.5-1.4h-9.3c-0.3,0-0.6,0.2-0.7,0.5l-4,19c-0.1,0.2,0,0.4,0.1,0.5c0.1,0.2,0.7,0.8,0.8,1
		c0.1,0.2,0.3,0.4,0.5,0.4h6c0.3,0,0.6-0.4,0.7-0.7l1.8-8.8l1.1,7.9c0.1,0.3,1.2,1.5,1.5,1.5h5.2c0.2,0,0.5-0.2,0.5-0.4l4.4-7.8
		L90.8,97c-0.1,0.2,0,0.4,0.1,0.5c0.1,0.2,0.7,0.8,0.8,1c0.1,0.2,0.3,0.4,0.5,0.4h6c0.3,0,0.6-0.4,0.7-0.7l4-19.1
		C103.1,78.9,103,78.7,102.9,78.6z"/>
	<path fill="#FCFFF5" d="M125.9,78.6c-0.1-0.2-0.7-0.7-0.8-0.8s-0.3-0.2-0.5-0.2h-19.1c-0.3,0-0.6,0.2-0.7,0.5l-4,19
		c-0.1,0.2,0,0.4,0.1,0.5c0.1,0.2,0.7,0.8,0.8,1c0.1,0.2,0.3,0.4,0.5,0.4h19.1c0.3,0,0.6-0.4,0.7-0.7l0.9-4.2c0.1-0.2,0-0.4-0.1-0.6
		c-0.1-0.2-0.7-0.4-0.8-0.6c-0.1-0.2-0.3,0.1-0.5,0.1h-10.9l0.3-1.8h11.3c0.3,0,0.6-0.2,0.7-0.5l0.8-4c0.1-0.2,0-0.4-0.1-0.5
		c-0.1-0.2-0.7-0.6-0.8-0.8c-0.1-0.2-0.3-0.1-0.5-0.1h-10.1l0.3-1.2h12.1c0.3,0,0.6-0.4,0.7-0.7l0.9-4.2
		C126.1,79,126,78.7,125.9,78.6z"/>
	<path fill="#FCFFF5" d="M149.2,80.1c-0.2-0.2-0.5-0.5-0.7-0.7c-0.1-0.1-0.1-0.1-0.1-0.1c-0.9-1.2-2.7-1.7-5.2-1.7h-15.3
		c-0.3,0-0.6,0.2-0.7,0.5l-4,19c-0.1,0.2,0,0.4,0.1,0.5c0.1,0.2,0.7,0.8,0.8,1c0.1,0.2,0.3,0.4,0.5,0.4h6.3c0.3,0,0.6,0,0.7-0.3
		l1.2-5.6h5.3c0.2,0,0.4-0.3,0.5-0.3c0.1,0.4,0,0.8-0.2,1.7c-0.2,1.1-0.4,2.3-0.2,3.1c0.1,0.3,1.2,1.4,1.5,1.4h7
		c0.2,0,0.5-0.2,0.5-0.5c0.1-0.2,0.1-0.5,0-0.7c-0.5-0.8-0.4-2,0.1-5.5c0.2-1.7-0.2-2.8-0.8-3.4c1.6-0.8,2.8-2.4,3.2-4.4
		C150.2,82.6,150,81.1,149.2,80.1z M140.7,84.5c-0.3,1.3-1.3,1.9-2.2,1.9h-4.3l0.4-2.4h5.6c0.2,0,0.4,0.1,0.5,0.1
		C140.7,84.3,140.7,84.4,140.7,84.5z"/>
	
		<linearGradient id="SVGID_2_" gradientUnits="userSpaceOnUse" x1="4.5373" y1="828.5945" x2="4.5373" y2="832.4093" gradientTransform="matrix(5 0 0 -5 0 4240)">
		<stop  offset="0" style="stop-color:#91AA9D"/>
		<stop  offset="1" style="stop-color:#193441"/>
	</linearGradient>
	<path fill="url(#SVGID_2_)" d="M14.7,78h14.1c5.2,0,6.5,2.7,5.6,6.3c-0.7,3.1-3,6.3-8.1,6.3h-8L17,97h-6.3L14.7,78z M19.2,86.7h5.6
		c1.8,0,2.7-0.7,3-2.4c0.4-1.7-0.3-2.4-2-2.4h-5.6L19.2,86.7z"/>
	
		<linearGradient id="SVGID_3_" gradientUnits="userSpaceOnUse" x1="9.4867" y1="828.5945" x2="9.4867" y2="832.4092" gradientTransform="matrix(5 0 0 -5 0 4240)">
		<stop  offset="0" style="stop-color:#91AA9D"/>
		<stop  offset="1" style="stop-color:#193441"/>
	</linearGradient>
	<path fill="url(#SVGID_3_)" d="M39.1,78h15.3c4.7,0,5.9,2.1,5.2,5.3c-0.5,2.5-2.1,3.9-3.9,4.3v0.1c1.1,0.4,1.9,1.4,1.6,3.4
		c-0.5,3.7-0.7,5-0.1,5.9h-7.1c-0.2-0.8,0.1-2,0.2-2.8c0.6-3-0.2-3.5-1.8-3.5h-5.8l-1.4,6.3h-6.3L39.1,78z M43.7,86.4h6.1
		c1.5,0,2.6-0.8,2.8-2.1c0.3-1.2-0.4-2.1-1.9-2.1h-6.1L43.7,86.4z"/>
	
		<linearGradient id="SVGID_4_" gradientUnits="userSpaceOnUse" x1="12.9448" y1="828.5945" x2="12.9448" y2="832.4093" gradientTransform="matrix(5 0 0 -5 0 4240)">
		<stop  offset="0" style="stop-color:#91AA9D"/>
		<stop  offset="1" style="stop-color:#193441"/>
	</linearGradient>
	<path fill="url(#SVGID_4_)" d="M63,83.3h6.3L66.4,97h-6.3L63,83.3z"/>
	
		<linearGradient id="SVGID_5_" gradientUnits="userSpaceOnUse" x1="17.1749" y1="828.5945" x2="17.1749" y2="832.4093" gradientTransform="matrix(5 0 0 -5 0 4240)">
		<stop  offset="0" style="stop-color:#91AA9D"/>
		<stop  offset="1" style="stop-color:#193441"/>
	</linearGradient>
	<path fill="url(#SVGID_5_)" d="M74.2,78h9.3l1.7,12.6h0.1l7-12.6h9.3l-4,19h-6l3-14.2h-0.1L86.4,97h-5.2l-2-14.2h-0.1l-3,14.2h-6
		L74.2,78z"/>
	
		<linearGradient id="SVGID_6_" gradientUnits="userSpaceOnUse" x1="22.5915" y1="828.5945" x2="22.5915" y2="832.4093" gradientTransform="matrix(5 0 0 -5 0 4240)">
		<stop  offset="0" style="stop-color:#91AA9D"/>
		<stop  offset="1" style="stop-color:#193441"/>
	</linearGradient>
	<path fill="url(#SVGID_6_)" d="M105.4,78h19.1l-0.9,4.1h-12.8l-0.7,3.4h11.9l-0.8,4h-11.9l-0.7,3.4h12.8l-0.9,4.1h-19.1L105.4,78z"
		/>
	
		<linearGradient id="SVGID_7_" gradientUnits="userSpaceOnUse" x1="27.2377" y1="828.5945" x2="27.2377" y2="832.4092" gradientTransform="matrix(5 0 0 -5 0 4240)">
		<stop  offset="0" style="stop-color:#91AA9D"/>
		<stop  offset="1" style="stop-color:#193441"/>
	</linearGradient>
	<path fill="url(#SVGID_7_)" d="M127.8,78h15.3c4.7,0,5.9,2.1,5.2,5.3c-0.5,2.6-2.1,3.9-4,4.3v0.1c1.1,0.4,1.9,1.4,1.6,3.4
		c-0.5,3.7-0.7,5-0.1,5.9h-7c-0.2-0.8,0.1-2,0.2-2.8c0.6-3-0.2-3.5-1.8-3.5h-5.8l-1.4,6.3h-6.3L127.8,78z M132.4,86.4h6.1
		c1.5,0,2.6-0.8,2.8-2.1c0.3-1.2-0.4-2.1-1.9-2.1h-6.1L132.4,86.4z"/>
</g>
</svg>
