<?xml version="1.0" encoding="utf-8"?>
<!-- Generator: Adobe Illustrator 18.1.0, SVG Export Plug-In . SVG Version: 6.00 Build 0)  -->
<svg version="1.1" id="Layer_1" xmlns="http://www.w3.org/2000/svg" xmlns:xlink="http://www.w3.org/1999/xlink" x="0px" y="0px"
	 viewBox="0 0 160 160" enable-background="new 0 0 160 160" xml:space="preserve">
<rect width="160" height="160"/>
<g>
	<path fill="#FCFFF5" d="M120.2,53.5c-0.8-1-2.4-2.8-2.6-3c-3.6-4.4-10.1-6.1-18.6-6.1H52c-1,0-2,0.6-2.2,1.6l-13.4,63.5
		c-0.2,0.6,0,1.2,0.4,1.6c0.4,0.6,2.4,2.8,2.8,3.4c0.6,0.4,1.2,1.2,1.8,1.2h21.2c1,0,2,0,2.2-1l4.2-18.8h25.1
		c21.8,0,27.5-17.2,29.1-23.9C124.6,64.6,123.6,57.7,120.2,53.5z M74.9,64.2h17.2c0.8,0,1.6,0.2,2.2,0.2c0,0.8-0.2,2.2-0.2,3
		c-1.2,4.5-3.4,6.7-8.3,6.7H72.9L74.9,64.2z"/>
	
		<linearGradient id="SVGID_1_" gradientUnits="userSpaceOnUse" x1="15.7145" y1="826.1068" x2="15.7145" y2="838.8226" gradientTransform="matrix(5 0 0 -5 0 4240)">
		<stop  offset="0" style="stop-color:#91AA9D"/>
		<stop  offset="1" style="stop-color:#193441"/>
	</linearGradient>
	<path fill="url(#SVGID_1_)" d="M52,46h47.1c17.2,0,21.6,9.1,18.8,21.2c-2.2,10.5-9.9,21.2-26.9,21.2H64.2l-4.5,21.2H38.5L52,46z
		 M67,75.1h18.8c5.9,0,8.9-2.4,10.1-8.1c1.2-5.5-1-8.1-6.7-8.1H70.4L67,75.1z"/>
</g>
</svg>
