<?xml version="1.0" encoding="utf-8"?>
<!-- Generator: Adobe Illustrator 18.1.0, SVG Export Plug-In . SVG Version: 6.00 Build 0)  -->
<svg version="1.1" id="Layer_1" xmlns="http://www.w3.org/2000/svg" xmlns:xlink="http://www.w3.org/1999/xlink" x="0px" y="0px"
	 viewBox="0 0 240 64" enable-background="new 0 0 240 64" xml:space="preserve">
<g>
	<g>
		<g>
			<path fill="#FCFFF5" d="M67.5,13.2c0-3.5-1.8-5.3-5.7-5.3c-4.2,0-6.5,2.4-6.5,6.2v11.3h-2.7v-13c0-2.4-1.7-4.5-5.5-4.5
				c-3.9,0-6.8,2.3-6.8,6.7v10.8h-2.7V6.2h2.7v3.5h0.1c1.1-2,3.2-4.1,7.6-4.1c4.3,0,6.3,2.3,6.9,4.2c0.9-1.9,3.7-4.2,7.5-4.2
				c5.4,0,7.9,2.7,7.9,6.7v13.1h-2.7V13.2z"/>
			<path fill="#FCFFF5" d="M76.3,0.2H79v6.1h5.4v2.1H79V21c0,1.7,0.5,2.4,2.7,2.4c1.3,0,2.2-0.1,2.7-0.2v2.3c-1,0.1-2.1,0.2-3,0.2
				c-4.2,0-5.2-1.7-5.2-4.8V8.3h-4.2V6.2h4.2V0.2z"/>
			<path fill="#FCFFF5" d="M105.2,6.2h2.7v18.4c0,7.1-5.7,8.9-10.8,8.9c-8.7,0-9.6-4.2-9.8-6.2h2.5c0.4,2.1,1,4.2,7.4,4.2
				c5,0,7.9-2.4,7.9-7v-3.4h-0.1c-1,2-3.5,4.4-8.5,4.4c-4.9,0-10.2-2.5-10.2-10c0-5.1,3.2-9.8,10.5-9.8c3.7,0,6.9,1.4,8.2,4.3h0.1
				V6.2z M97,7.9c-4.8,0-7.9,2.8-7.9,7.5c0,5.6,3.5,7.7,8.1,7.7c4.5,0,8-2.8,8-7.7C105.2,11.4,102.5,7.9,97,7.9z"/>
		</g>
	</g>
	<path fill="#FFFFFF" d="M164.3,30.2h32.2l-1.5,6.9h-21.5l-1.2,5.8h20.1l-1.4,6.7h-20.1l-1.2,5.8h21.5l-1.5,6.9h-32.2L164.3,30.2z"
		/>
	<linearGradient id="SVGID_1_" gradientUnits="userSpaceOnUse" x1="175.478" y1="60.9005" x2="175.478" y2="28.7509">
		<stop  offset="0" style="stop-color:#91AA9D"/>
		<stop  offset="1" style="stop-color:#193441"/>
	</linearGradient>
	<path fill="url(#SVGID_1_)" d="M162.8,28.8H195l-1.5,6.9H172l-1.2,5.8h20.1l-1.4,6.7h-20.1l-1.2,5.8h21.5l-1.5,6.9H156L162.8,28.8z
		"/>
	<path fill="#FCFFF5" d="M44.4,32.6c-0.4-0.5-1.2-1.4-1.3-1.5c-1.8-2.2-5.1-3.1-9.4-3.1H9.9c-0.5,0-1,0.3-1.1,0.8L2,60.9
		c-0.1,0.3,0,0.6,0.2,0.8c0.2,0.3,1.2,1.4,1.4,1.7C3.9,63.6,4.2,64,4.5,64h10.7c0.5,0,1,0,1.1-0.5l2.1-9.5h12.7
		c11,0,13.9-8.7,14.7-12.1C46.6,38.2,46.1,34.7,44.4,32.6z M21.5,38h8.7c0.4,0,0.8,0.1,1.1,0.1c0,0.4-0.1,1.1-0.1,1.5
		C30.6,41.9,29.5,43,27,43h-6.5L21.5,38z"/>
	<path fill="#FCFFF5" d="M87,32.3c-0.3-0.4-1.3-1.4-1.3-1.5c-1.6-2-4.7-2.8-8.9-2.8H51c-0.5,0-1,0.3-1.1,0.8l-6.8,32.1
		c-0.1,0.3,0,0.6,0.2,0.8c0.2,0.3,1.2,1.4,1.4,1.7c0.2,0.3,0.5,0.6,0.8,0.6h10.7c0.5,0,1,0,1.1-0.5l2.1-9.5h8.9
		c0.3,0,0.6-0.5,0.9-0.5c0.1,0.6,0,1.4-0.3,2.9c-0.4,1.7-0.7,3.7-0.4,5.3c0.1,0.5,2,2.4,2.5,2.4h11.8c0.4,0,0.8-0.4,0.9-0.8
		c0.2-0.3,0.2-0.9,0-1.2c-0.8-1.3-0.6-3.3,0.2-9.3c0.4-2.9-0.3-4.7-1.4-5.7c2.7-1.4,4.7-4,5.4-7.4C88.8,36.5,88.4,34.1,87,32.3z
		 M72.7,39.8c-0.5,2.2-2.2,3.2-3.7,3.2h-7.2l0.7-4H72c0.3,0,0.6,0.1,0.8,0.1C72.8,39.4,72.8,39.6,72.7,39.8z"/>
	<path fill="#FCFFF5" d="M104.3,38.6c-0.2-0.3-1.2-1.1-1.4-1.3c-0.2-0.3-0.5-0.3-0.8-0.3H91.3c-0.5,0-1,0.3-1.1,0.8l-4.9,23.1
		c-0.1,0.3,0,0.6,0.2,0.8c0.2,0.3,1.2,1.4,1.4,1.7c0.2,0.3,0.5,0.6,0.8,0.6h10.7c0.5,0,1-0.6,1.1-1.1l4.9-23.3
		C104.6,39.3,104.5,38.9,104.3,38.6z"/>
	<path fill="#FCFFF5" d="M158.6,29.8c-0.2-0.3-1.2-1.1-1.4-1.4c-0.2-0.3-0.5-0.4-0.8-0.4h-15.7c-0.4,0-0.8,0.1-0.9,0.5l-9.3,16.6
		l-2-14.8c-0.1-0.5-2-2.3-2.5-2.3h-15.7c-0.5,0-1,0.3-1.1,0.8l-6.8,32.1c-0.1,0.3,0,0.6,0.2,0.8c0.2,0.3,1.2,1.4,1.4,1.7
		c0.2,0.3,0.5,0.6,0.8,0.6h10.1c0.5,0,1-0.6,1.1-1.1l3.1-14.8l1.8,13.3c0.1,0.5,2,2.5,2.5,2.5h8.8c0.4,0,0.8-0.4,0.9-0.7l7.4-13.2
		l-2.3,10.9c-0.1,0.3,0,0.6,0.2,0.8c0.2,0.3,1.2,1.4,1.4,1.7c0.2,0.3,0.5,0.6,0.8,0.6h10.1c0.5,0,1-0.6,1.1-1.1l6.8-32.2
		C158.9,30.4,158.8,30,158.6,29.8z"/>
	<path fill="#FCFFF5" d="M197.3,29.8c-0.2-0.3-1.2-1.1-1.4-1.4c-0.2-0.3-0.5-0.4-0.8-0.4h-32.2c-0.5,0-1,0.3-1.1,0.8l-6.8,32.1
		c-0.1,0.3,0,0.6,0.2,0.8c0.2,0.3,1.2,1.4,1.4,1.7c0.2,0.3,0.5,0.6,0.8,0.6h32.2c0.5,0,1-0.6,1.1-1.1l1.5-7c0.1-0.3,0-0.7-0.2-1
		c-0.2-0.3-1.2-0.7-1.4-1c-0.2-0.3-0.5,0.1-0.8,0.1h-18.4l0.5-3H191c0.5,0,1-0.4,1.1-0.9l1.4-6.7c0.1-0.3,0-0.6-0.2-0.9
		c-0.2-0.3-1.2-1-1.4-1.3c-0.2-0.3-0.5-0.2-0.8-0.2h-17l0.5-2H195c0.5,0,1-0.7,1.1-1.2l1.5-7C197.6,30.5,197.5,30,197.3,29.8z"/>
	<path fill="#FCFFF5" d="M236.6,32.3c-0.3-0.4-0.8-0.8-1.2-1.1c-0.1-0.1-0.1-0.1-0.2-0.2c-1.6-2-4.6-2.9-8.8-2.9h-25.8
		c-0.5,0-1,0.3-1.1,0.8l-6.8,32.1c-0.1,0.3,0,0.6,0.2,0.8c0.2,0.3,1.2,1.4,1.4,1.7c0.2,0.3,0.5,0.6,0.8,0.6h10.7c0.5,0,1,0,1.1-0.5
		l2.1-9.5h8.9c0.3,0,0.6-0.5,0.9-0.5c0.1,0.6,0,1.4-0.3,2.9c-0.4,1.8-0.7,3.8-0.4,5.3c0.1,0.5,2,2.4,2.5,2.4h11.8
		c0.4,0,0.8-0.4,0.9-0.8c0.2-0.3,0.2-0.9,0-1.2c-0.8-1.3-0.6-3.3,0.2-9.3c0.4-2.9-0.3-4.7-1.4-5.7c2.7-1.4,4.7-4,5.4-7.4
		C238.3,36.5,238,34.1,236.6,32.3z M222.3,39.8c-0.5,2.2-2.2,3.2-3.7,3.2h-7.2l0.7-4h9.4c0.3,0,0.6,0.1,0.8,0.1
		C222.3,39.4,222.3,39.6,222.3,39.8z"/>
	<linearGradient id="SVGID_2_" gradientUnits="userSpaceOnUse" x1="23.3458" y1="60.9005" x2="23.3458" y2="28.7509">
		<stop  offset="0" style="stop-color:#91AA9D"/>
		<stop  offset="1" style="stop-color:#193441"/>
	</linearGradient>
	<path fill="url(#SVGID_2_)" d="M9.9,28.8h23.8c8.7,0,10.9,4.6,9.5,10.7c-1.1,5.3-5,10.7-13.6,10.7H16.1l-2.3,10.7H3.1L9.9,28.8z
		 M17.5,43.5H27c3,0,4.5-1.2,5.1-4.1c0.6-2.8-0.5-4.1-3.4-4.1h-9.5L17.5,43.5z"/>
	<linearGradient id="SVGID_3_" gradientUnits="userSpaceOnUse" x1="65.0645" y1="60.9005" x2="65.0645" y2="28.7509">
		<stop  offset="0" style="stop-color:#91AA9D"/>
		<stop  offset="1" style="stop-color:#193441"/>
	</linearGradient>
	<path fill="url(#SVGID_3_)" d="M51,28.8h25.8c7.9,0,10,3.6,8.8,9C84.7,42,82,44.3,79,45.1l0,0.1c1.9,0.7,3.2,2.3,2.7,5.8
		c-0.9,6.3-1.1,8.4-0.1,10H69.7c-0.3-1.4,0.1-3.3,0.4-4.8c1-5-0.4-5.9-3.1-5.9h-9.8l-2.3,10.7H44.2L51,28.8z M58.7,43h10.3
		c2.6,0,4.3-1.4,4.7-3.6c0.5-2.1-0.6-3.5-3.2-3.5H60.2L58.7,43z"/>
	<linearGradient id="SVGID_4_" gradientUnits="userSpaceOnUse" x1="94.2203" y1="60.9005" x2="94.2203" y2="28.7509">
		<stop  offset="0" style="stop-color:#91AA9D"/>
		<stop  offset="1" style="stop-color:#193441"/>
	</linearGradient>
	<path fill="url(#SVGID_4_)" d="M91.3,37.8H102l-4.9,23.1H86.4L91.3,37.8z"/>
	<linearGradient id="SVGID_5_" gradientUnits="userSpaceOnUse" x1="129.8429" y1="60.9005" x2="129.8429" y2="28.7509">
		<stop  offset="0" style="stop-color:#91AA9D"/>
		<stop  offset="1" style="stop-color:#193441"/>
	</linearGradient>
	<path fill="url(#SVGID_5_)" d="M110.2,28.8h15.7l2.8,21.2h0.1l11.8-21.2h15.7l-6.8,32.1h-10.1l5.1-24h-0.1l-13.6,24H122l-3.3-24
		h-0.1l-5.1,24h-10.1L110.2,28.8z"/>
	<linearGradient id="SVGID_6_" gradientUnits="userSpaceOnUse" x1="175.478" y1="60.9005" x2="175.478" y2="28.7509">
		<stop  offset="0" style="stop-color:#91AA9D"/>
		<stop  offset="1" style="stop-color:#193441"/>
	</linearGradient>
	<path fill="url(#SVGID_6_)" d="M162.8,28.8H195l-1.5,6.9H172l-1.2,5.8h20.1l-1.4,6.7h-20.1l-1.2,5.8h21.5l-1.5,6.9H156L162.8,28.8z
		"/>
	<linearGradient id="SVGID_7_" gradientUnits="userSpaceOnUse" x1="214.6042" y1="60.9005" x2="214.6042" y2="28.7509">
		<stop  offset="0" style="stop-color:#91AA9D"/>
		<stop  offset="1" style="stop-color:#193441"/>
	</linearGradient>
	<path fill="url(#SVGID_7_)" d="M200.6,28.8h25.8c7.9,0,10,3.6,8.8,9c-0.9,4.3-3.6,6.6-6.7,7.3l0,0.1c1.9,0.7,3.2,2.3,2.7,5.8
		c-0.9,6.3-1.1,8.4-0.1,10h-11.8c-0.3-1.4,0.1-3.3,0.4-4.8c1-5-0.4-5.9-3.1-5.9h-9.8l-2.3,10.7h-10.7L200.6,28.8z M208.3,43h10.3
		c2.6,0,4.3-1.4,4.7-3.6c0.5-2.1-0.6-3.5-3.2-3.5h-10.3L208.3,43z"/>
</g>
</svg>
